<?xml version="1.0" standalone="no"?>
<!DOCTYPE svg PUBLIC "-//W3C//DTD SVG 1.1//EN" "http://www.w3.org/Graphics/SVG/1.1/DTD/svg11.dtd" >
<svg xmlns="http://www.w3.org/2000/svg">
<metadata></metadata>
<defs>
<font id="gan_clmbold" horiz-adv-x="1171" >
<font-face units-per-em="2048" ascent="1638" descent="-410" />
<missing-glyph horiz-adv-x="921" />
<glyph horiz-adv-x="2048" />
<glyph horiz-adv-x="2048" />
<glyph unicode="&#xd;" horiz-adv-x="681" />
<glyph unicode=" "  horiz-adv-x="921" />
<glyph unicode="&#x09;" horiz-adv-x="921" />
<glyph unicode="&#xa0;" horiz-adv-x="921" />
<glyph unicode="!" horiz-adv-x="655" d="M102 983q0 92 11.5 176t37 162t74 124t111.5 46q111 0 164 -128t53 -302q0 -106 -10.5 -197.5t-35 -178.5t-73.5 -137t-119 -50q-57 0 -101 46t-66.5 120.5t-34 154.5t-11.5 164zM106 197q0 82 60.5 137t144.5 55q92 0 155.5 -58.5t63.5 -142.5q0 -104 -56 -160.5 t-144 -56.5q-98 0 -161 62.5t-63 163.5z" />
<glyph unicode="&#x22;" horiz-adv-x="1009" d="M61 1020q0 94 22.5 180t80 149.5t137.5 63.5q74 0 126 -41t52 -119q0 -127 -99 -239.5t-194 -112.5q-125 0 -125 119zM532 1020q0 94 23 180t80 149.5t137 63.5q74 0 126 -41t52 -119q0 -127 -99 -239.5t-194 -112.5q-125 0 -125 119z" />
<glyph unicode="%" horiz-adv-x="1409" d="M61 1223q0 109 80 181.5t191 72.5q123 0 206 -77t83 -188q0 -137 -75 -211.5t-190 -74.5q-131 0 -213 82t-82 215zM77 338q11 104 85 170q68 59 176 137t188 154q76 70 196 231.5t208 222.5q100 68 201.5 73t166.5 -62q63 -68 45 -173.5t-110 -193.5q-61 -59 -182 -141 t-185 -142q-82 -74 -192.5 -208t-212.5 -226q-76 -70 -178.5 -76t-161.5 62q-55 68 -44 172zM786 256q0 109 80 181.5t191 72.5q123 0 206 -77t83 -187q0 -137 -75 -212t-190 -75q-131 0 -213 82t-82 215z" />
<glyph unicode="'" horiz-adv-x="538" d="M61 1020q0 94 22.5 180t80 149.5t137.5 63.5q74 0 126 -41t52 -119q0 -127 -99 -239.5t-194 -112.5q-125 0 -125 119z" />
<glyph unicode="(" horiz-adv-x="821" d="M61 643q0 205 44.5 371t115 264t152.5 149.5t166 51.5q115 0 168 -56.5t53 -152.5q0 -59 -36 -119.5t-66.5 -89.5t-84.5 -72q-170 -135 -165 -379q2 -225 174 -374q76 -66 112.5 -122.5t36.5 -136.5q0 -102 -57.5 -164.5t-149.5 -62.5q-141 0 -250.5 143.5t-161 343 t-51.5 406.5z" />
<glyph unicode=")" horiz-adv-x="821" d="M61 -41q0 59 36 119.5t67 89.5t84 72q170 135 166 378q-2 225 -174 375q-76 66 -113 122t-37 136q0 102 57.5 165t149.5 63q141 0 250.5 -143.5t161 -343t51.5 -406.5q0 -205 -44 -371t-115 -264t-152.5 -149.5t-165.5 -51.5q-115 0 -168.5 56.5t-53.5 152.5z" />
<glyph unicode="*" horiz-adv-x="1204" d="M78 860q37 78 139 82q43 2 85 -11t57.5 -18.5t52.5 9.5q25 16 32 36.5t11 60.5t16 75q33 104 135 104q100 0 144 -88q18 -39 19 -83t2 -72.5t24 -45.5q37 -20 56 -14t66.5 17.5t90.5 5.5q96 -16 125 -97q37 -102 -39 -166q-43 -35 -114 -49t-85 -47q-12 -29 4 -57.5 t44 -69.5t36 -86q16 -100 -59 -145q-82 -49 -168 4q-35 20 -60.5 62t-44 71t-47.5 29q-35 0 -51.5 -30t-38 -74t-59.5 -66q-43 -25 -93.5 -23t-87.5 31q-39 29 -50 83t7 95q10 27 29.5 64.5t21 49t-3.5 62.5q-8 39 -83.5 73t-108.5 85q-39 66 -4 143z" />
<glyph unicode="+" horiz-adv-x="1110" d="M61 647q0 119 132 162q94 31 140 71t62 115q16 70 59 113t109 43q70 0 118 -44t58 -124q12 -82 43 -112.5t103 -51.5q41 -12 63.5 -20t49 -26.5t39 -48.5t12.5 -71q0 -68 -38 -107.5t-122 -68.5q-72 -25 -109 -54.5t-53 -82.5q-49 -168 -172 -168q-61 0 -104 39t-58 104 q-31 139 -160 160q-172 35 -172 172z" />
<glyph unicode="," horiz-adv-x="643" d="M82 188q0 100 66.5 176t162.5 76q109 0 179.5 -83t70.5 -203q0 -168 -90 -314.5t-211 -146.5q-43 0 -76.5 22.5t-33.5 59.5q0 49 24.5 104t24.5 92q0 33 -35 62q-82 66 -82 155z" />
<glyph unicode="-" d="M61 647q0 94 59 158.5t159 64.5q61 0 157 -14t160 -12q55 0 143 12t146 12q98 0 161.5 -53t63.5 -156q0 -100 -66.5 -161.5t-179.5 -61.5q-49 0 -128 9.5t-130 9.5q-59 0 -155.5 -15.5t-159.5 -15.5q-117 0 -173.5 63.5t-56.5 159.5z" />
<glyph unicode="." horiz-adv-x="628" d="M82 219q0 90 66.5 150.5t158.5 60.5q102 0 172 -63.5t70 -155.5q0 -115 -62.5 -177.5t-158.5 -62.5q-109 0 -177.5 69t-68.5 179z" />
<glyph unicode="/" horiz-adv-x="1052" d="M2 12q-10 94 59 226q27 45 83.5 135t99.5 166.5t82 160.5q39 86 122.5 329.5t159.5 356.5q176 268 353 191q102 -45 111 -169t-64 -261q-43 -90 -140.5 -236.5t-144.5 -240.5q-59 -117 -131 -313.5t-143 -331.5q-37 -70 -86.5 -113t-98.5 -57.5t-95 -9.5t-85 30 q-72 43 -82 137z" />
<glyph unicode="0" horiz-adv-x="1355" d="M61 739q0 352 163 548t444 196q299 0 462.5 -193.5t163.5 -544.5q0 -145 -33.5 -275t-106.5 -244.5t-203 -183.5t-304 -69q-164 0 -283.5 71t-182 187.5t-91.5 243.5t-29 264zM444 735q0 -145 56.5 -252.5t171.5 -107.5q106 0 163.5 112.5t57.5 239.5q0 141 -57 252 t-172 111q-111 0 -165.5 -106.5t-54.5 -248.5z" />
<glyph unicode="1" horiz-adv-x="1005" d="M61 973q0 160 275 356q230 164 369 164q141 0 174 -199q25 -160 24 -612q0 -403 -31 -512q-57 -201 -202 -201q-86 0 -139.5 79t-53.5 173q0 80 22.5 225.5t22.5 217.5q0 41 -2 64.5t-11 54t-31.5 46t-59.5 15.5q-35 0 -84 -25.5t-82 -25.5q-82 0 -136.5 47t-54.5 133z " />
<glyph unicode="2" horiz-adv-x="1323" d="M61 242q0 352 529 606q29 14 57.5 27.5t55 30t47 32.5t33 37.5t12.5 46.5q0 39 -43 62.5t-95 23.5q-90 0 -221 -68.5t-196 -68.5q-170 0 -170 172q0 109 88 188.5t212 114.5t259 35q240 0 415 -112t175 -327q0 -127 -69 -222t-183 -150q-229 -113 -277 -142 q-27 -16 -38 -24t-23.5 -26.5t-12.5 -41.5q0 -29 21.5 -39t69.5 -10q45 0 145 19.5t158 19.5q252 0 252 -227q0 -88 -49.5 -153.5t-133.5 -65.5q-72 0 -186.5 17t-185.5 17q-66 0 -165.5 -16t-172.5 -16q-162 0 -235 62t-73 198z" />
<glyph unicode="3" horiz-adv-x="1394" d="M61 301q0 90 53.5 142.5t133.5 52.5q78 0 147.5 -34t153.5 -68t196 -34q68 0 124.5 31t56.5 88q0 43 -33 77t-73 51.5t-72.5 50t-32.5 75.5q0 57 60.5 112.5t60.5 102.5q0 39 -42 72t-94 33q-100 0 -207.5 -46t-173.5 -46q-80 0 -136 60t-56 142q0 139 170 225.5 t367 86.5q264 0 433 -114t169 -312q0 -102 -72 -179q-14 -16 -26.5 -27.5t-20.5 -27.5t-8 -35q0 -53 55 -96q139 -111 139 -299q0 -113 -81 -220.5t-224 -156.5q-111 -39 -315 -39q-197 0 -320 31q-150 39 -241 123t-91 178z" />
<glyph unicode="4" horiz-adv-x="1466" d="M61 590q0 129 75 285.5t199 296t311 233.5t388 94q217 0 223 -248l11 -430q4 -74 67 -123q70 -53 70 -153q0 -92 -86 -166q-68 -57 -68 -150q0 -127 -40 -195.5t-148 -68.5q-117 0 -169 84t-52 205q0 51 -37 82t-107 31q-63 0 -165.5 -3.5t-167.5 -3.5q-303 0 -304 230z M479 739q0 -68 88 -67q72 0 116 2t83 6t58.5 17.5t34.5 26.5t20.5 44t7.5 57.5t2 79.5q0 180 -96 180q-80 0 -197 -124.5t-117 -221.5z" />
<glyph unicode="5" horiz-adv-x="1318" d="M61 223q0 76 52.5 126t138.5 50q74 0 187.5 -33.5t185.5 -33.5q252 0 252 160q0 74 -66 114.5t-149 40.5q-74 0 -187 -21.5t-199 -21.5q-170 0 -194 205q-16 133 -16 438q0 119 51 179.5t137 60.5q41 0 164 -20.5t272 -20.5q109 0 196 15.5t136 15.5q98 0 166.5 -57.5 t68.5 -159.5q0 -84 -53 -138.5t-145 -54.5q-55 0 -215 24.5t-242 24.5q-129 0 -129 -100q0 -88 125 -88q37 0 94.5 5t83.5 5q225 0 351 -120t126 -341q0 -106 -38.5 -194t-102 -146.5t-149.5 -98.5t-178.5 -57.5t-188.5 -17.5q-98 0 -183 11.5t-169 38t-133.5 80.5 t-49.5 130z" />
<glyph unicode="6" horiz-adv-x="1370" d="M61 637q0 424 198 643t511 219q209 0 343 -68.5t134 -201.5q0 -72 -53 -119t-123 -47q-51 0 -134 29.5t-153 29.5q-145 0 -226 -75.5t-81 -139.5q0 -20 12.5 -34.5t32.5 -14.5q18 0 127 33t174 33q207 0 346.5 -112t139.5 -325q0 -72 -18.5 -141.5t-62.5 -140 t-110.5 -123.5t-173 -86t-237.5 -33q-287 0 -466.5 173t-179.5 501zM508 453q0 -70 59.5 -111t139.5 -43q92 -2 164.5 43t72.5 125q0 74 -67.5 115t-153.5 38.5t-150.5 -47.5t-64.5 -120z" />
<glyph unicode="7" horiz-adv-x="1384" d="M61 1229q0 123 71 187.5t190 64.5q59 0 177.5 -22.5t260.5 -22.5q115 0 215 21.5t145 21.5q113 0 178.5 -68t65.5 -182q0 -125 -104 -275q-88 -123 -120 -170t-88.5 -149.5t-86 -204.5t-50.5 -235q-39 -240 -213 -240q-115 0 -171 64.5t-56 160.5q0 127 58.5 255 t216.5 319q94 113 94 198q0 121 -164 121q-74 0 -188.5 -31.5t-194.5 -31.5q-121 0 -178.5 71.5t-57.5 147.5z" />
<glyph unicode="8" horiz-adv-x="1449" d="M61 440q0 199 189 324q43 29 43 59.5t-37 73.5q-84 102 -84 229q0 109 76 194t196 128q109 39 281 39q174 0 283 -39q121 -43 196.5 -128t75.5 -194q0 -127 -84 -229q-72 -82 4 -133q190 -123 191 -324q0 -223 -169 -347t-497 -124t-496 124t-168 347zM451 430 q0 -78 86 -117t198 -39q100 0 177 40t77 114q0 168 -274 168q-104 0 -184 -44t-80 -122zM518 1059q0 -70 64.5 -101.5t150.5 -31.5q80 0 141.5 39t61.5 110q0 53 -65.5 89t-139.5 36q-86 0 -149.5 -35t-63.5 -106z" />
<glyph unicode="9" horiz-adv-x="1304" d="M61 991q0 219 165 351.5t392 132.5q625 0 625 -756q0 -369 -189.5 -560.5t-486.5 -191.5q-268 0 -407 101q-88 66 -88 174q0 82 54 135t126 53q68 0 156 -45t176 -45q119 0 199.5 45t80.5 123q0 90 -147 90q-35 0 -99.5 -8t-105.5 -8q-219 0 -335 112.5t-116 296.5z M432 995q0 -72 63.5 -111.5t145.5 -39.5q84 0 146.5 39t62.5 112.5t-64.5 115.5t-148.5 42q-82 0 -143.5 -42t-61.5 -116z" />
<glyph unicode=":" horiz-adv-x="630" d="M82 219q0 90 66.5 150.5t158.5 60.5q102 0 172 -63.5t70 -155.5q0 -115 -62.5 -177.5t-158.5 -62.5q-109 0 -177.5 69t-68.5 179zM84 834q0 90 66.5 150t158.5 60q102 0 172 -63t70 -156q0 -115 -61.5 -177t-159.5 -62q-109 0 -177.5 68.5t-68.5 179.5z" />
<glyph unicode=";" horiz-adv-x="643" d="M82 188q0 100 66.5 176t162.5 76q109 0 179.5 -83t70.5 -203q0 -168 -90 -314.5t-211 -146.5q-43 0 -76.5 22.5t-33.5 59.5q0 49 24.5 104t24.5 92q0 33 -35 62q-82 66 -82 155zM84 834q0 90 66.5 150t158.5 60q102 0 172 -63t70 -156q0 -115 -61.5 -177t-159.5 -62 q-109 0 -177.5 68.5t-68.5 179.5z" />
<glyph unicode="&#x3c;" horiz-adv-x="1028" d="M61 698.5q-2 92.5 74 161.5q25 23 87.5 74t110.5 99t89 104q70 94 136.5 141t164.5 47q121 0 183.5 -64.5t62.5 -164.5q0 -147 -258 -277q-23 -10 -41.5 -20.5t-33.5 -18.5t-26.5 -16t-18.5 -17.5t-11.5 -19.5t-4.5 -22q0 -31 32 -55.5t118 -67.5q211 -102 211 -285 q0 -102 -73.5 -179t-182.5 -77q-104 0 -162.5 35t-122.5 125q-57 84 -123.5 176t-128.5 151q-80 78 -82 170.5z" />
<glyph unicode="=" d="M61 412q0 86 59 143t159 57q61 0 157 -12t160 -12q55 0 143 11t146 11q98 0 161.5 -48t63.5 -140q0 -88 -66.5 -144.5t-179.5 -56.5q-49 0 -128 8.5t-130 8.5q-59 0 -155.5 -13.5t-159.5 -13.5q-117 0 -173.5 57.5t-56.5 143.5zM61 965q0 86 59 143t159 57q61 0 157 -12 t160 -12q55 0 143 11t146 11q98 0 161.5 -48t63.5 -140q0 -88 -66.5 -144.5t-179.5 -56.5q-49 0 -128 8.5t-130 8.5q-59 0 -155.5 -13.5t-159.5 -13.5q-117 0 -173.5 57.5t-56.5 143.5z" />
<glyph unicode="&#x3e;" horiz-adv-x="1028" d="M61 272q0 84 69 149.5t189 127.5q23 10 41.5 20.5t34 18.5t26.5 16t18 17.5t11.5 19.5t4.5 23q0 31 -33 55t-117 65q-211 104 -211 287q0 102 74 178t180 76q104 0 163.5 -35t123.5 -125q170 -246 252 -325q80 -78 82 -170t-74 -162q-25 -23 -87.5 -74t-111.5 -99 t-90 -104q-68 -94 -134 -142t-165 -48q-121 0 -183.5 64.5t-62.5 166.5z" />
<glyph unicode="?" horiz-adv-x="1191" d="M61 1180q0 129 162 220t395 91q231 0 382 -93t151 -286q0 -72 -38 -138.5t-112 -101.5q-72 -35 -109.5 -74.5t-55.5 -111.5q-23 -88 -83.5 -147.5t-146.5 -59.5q-98 0 -156.5 47t-58.5 127q0 139 129 219q25 14 49.5 30t47 31t42 31.5t33 33t21.5 35t8 38.5 q0 27 -23.5 44.5t-54.5 17.5q-35 0 -163 -67t-214 -67q-88 0 -146.5 50.5t-58.5 130.5zM385 190q-2 88 58.5 153t146.5 67q88 2 150.5 -60.5t64.5 -152.5q4 -88 -55.5 -152.5t-147.5 -67t-150.5 60t-66.5 152.5z" />
<glyph unicode="[" horiz-adv-x="954" d="M61 1260q0 211 183 210q45 0 112.5 -11t110.5 -11q47 -2 116.5 6t112.5 8q113 0 176.5 -48t63.5 -140q0 -94 -69.5 -141.5t-202.5 -59.5q-111 -10 -164.5 -63.5t-53.5 -157.5q0 -41 7.5 -121t7.5 -131q0 -61 -18.5 -153.5t-18.5 -151.5q0 -39 25.5 -62.5t68.5 -23.5 q25 0 77 12t85 12q96 0 154.5 -54t58.5 -154q0 -92 -59.5 -145.5t-151.5 -53.5q-43 0 -102.5 11t-98.5 11q-33 0 -85 -5t-85 -5q-231 0 -231 266q0 109 12 278t12 277q0 168 -21.5 339t-21.5 262z" />
<glyph unicode="\" horiz-adv-x="1052" d="M1 1408q9 124 112 169q174 75 352 -191q76 -113 160 -356.5t123 -329.5q39 -84 79.5 -157.5t102 -172t82.5 -132.5q70 -131 58.5 -225.5t-83.5 -137.5q-53 -27 -114.5 -31t-130 43t-117.5 138q-74 137 -145.5 334.5t-129.5 310.5q-47 94 -144 240.5t-140 236.5 q-74 137 -65 261z" />
<glyph unicode="]" horiz-adv-x="954" d="M20 23q0 94 69 141t202 59q111 10 164 62.5t53 158.5q0 41 -7 121t-7 131q0 61 18 153.5t18 151.5q0 39 -25.5 62.5t-68.5 23.5q-25 0 -76 -12t-86 -12q-96 0 -153.5 54.5t-57.5 154.5q0 92 59.5 145t149.5 53q45 0 104.5 -11t96.5 -11q35 0 86 5t86 5q231 0 232 -266 q0 -109 -12.5 -278t-12.5 -277q0 -168 21.5 -339t21.5 -261q0 -104 -48 -157.5t-134 -53.5q-45 0 -114 11t-110 11q-47 2 -116.5 -6t-112.5 -8q-113 0 -176.5 48t-63.5 141z" />
<glyph unicode="&#xad;" d="M61 647q0 94 59 158.5t159 64.5q61 0 157 -14t160 -12q55 0 143 12t146 12q98 0 161.5 -53t63.5 -156q0 -100 -66.5 -161.5t-179.5 -61.5q-49 0 -128 9.5t-130 9.5q-59 0 -155.5 -15.5t-159.5 -15.5q-117 0 -173.5 63.5t-56.5 159.5z" />
<glyph unicode="&#x5d0;" horiz-adv-x="1392" d="M61 227q0 35 6.5 67t16.5 57.5t25.5 54t31.5 59.5q53 100 54 264q0 29 -4.5 54.5t-11.5 46t-16 44t-22 48.5q-35 80 -35 137q0 80 52.5 135t132.5 55q78 0 136 -36.5t99 -97t95 -136.5q92 -135 142 -184.5t97 -49.5q39 0 62.5 33t23.5 78q0 41 -35 127q-25 61 -24 121 q0 63 48 112.5t122 49.5q96 0 203 -95q72 -66 71 -165q0 -84 -78 -240q-80 -160 -79 -260q0 -88 51 -197q49 -113 49 -176q0 -72 -43 -114t-129 -42q-121 0 -234 191q-66 111 -164 196t-165 85q-35 0 -55.5 -25t-20.5 -64q0 -45 39 -114q47 -88 47 -146q0 -66 -58.5 -103.5 t-160.5 -37.5q-133 0 -201 72.5t-68 195.5z" />
<glyph unicode="&#x5d1;" horiz-adv-x="1388" d="M61 180q0 111 99.5 172.5t230.5 61.5q53 0 137 -3t134 -3q84 0 141 55t57 143q0 100 -71.5 164t-186.5 64q-49 0 -122.5 -23t-164.5 -23q-92 0 -152.5 47.5t-60.5 143.5q0 131 158 213t387 82q276 0 430 -170q119 -131 105 -404q-6 -104 9 -171.5t64 -131.5 q72 -90 72 -202q0 -92 -61.5 -150.5t-165.5 -58.5q-63 0 -159.5 16t-160.5 16q-90 0 -257 -26.5t-247 -26.5q-94 0 -154.5 54.5t-60.5 160.5z" />
<glyph unicode="&#x5d2;" d="M61 176q0 129 136 205q41 25 85 40t111.5 31.5t104.5 28.5q160 49 159 228q0 74 -49 122t-121 48q-51 0 -116.5 -15.5t-112.5 -15.5q-74 0 -120 54t-46 130q0 106 122 174t267 68q254 0 391 -121q80 -72 102.5 -152.5t24.5 -205.5q2 -219 64 -416q4 -14 17.5 -53 t16.5 -54.5t9 -44t5 -55.5t-5 -59q-10 -72 -68.5 -113t-136.5 -41q-76 0 -133 59.5t-78 157.5q-6 35 -31.5 39t-42.5 -29q-53 -102 -149 -164.5t-205 -62.5q-100 0 -150.5 61.5t-50.5 155.5z" />
<glyph unicode="&#x5d3;" horiz-adv-x="1380" d="M61 1049q2 100 75 164.5t181 64.5q68 0 184.5 -24.5t194.5 -24.5q80 0 205 24.5t207 24.5q98 0 155.5 -55.5t57.5 -135.5q0 -68 -33 -111.5t-104 -94.5q-66 -47 -85.5 -107.5t-19.5 -167.5q0 -70 11.5 -174t11.5 -192q0 -106 -57.5 -185.5t-155.5 -79.5q-115 0 -170 85 t-55 196q0 104 40.5 247.5t40.5 223.5q0 66 -45 106.5t-118 40.5q-47 0 -127 -17t-179 -17q-86 0 -151.5 61.5t-63.5 147.5z" />
<glyph unicode="&#x5d4;" horiz-adv-x="1378" d="M61 1057q0 88 62.5 146.5t171.5 58.5q70 0 179.5 -16.5t189.5 -16.5h182q96 0 171 -26.5t124 -66.5t84 -109t53 -128t27.5 -149.5t11.5 -149.5t2 -149q0 -98 -6 -168t-25.5 -154t-69 -129t-122.5 -45q-106 0 -157.5 78t-51.5 190q0 61 5 162.5t5 165.5q0 299 -274 299 q-43 0 -115 -6t-119 -6q-143 0 -235.5 55t-92.5 164zM94 276q0 154 63.5 246t161.5 92q207 0 207 -303q0 -90 -18.5 -163.5t-72.5 -129t-140 -55.5q-66 0 -109 26.5t-61.5 78t-24.5 97.5t-6 111z" />
<glyph unicode="&#x5d5;" horiz-adv-x="653" d="M61 997q0 104 64.5 183.5t181.5 79.5q178 0 242 -189q43 -127 43 -399q0 -274 -43 -467q-47 -227 -207 -228q-109 0 -149.5 63.5t-49.5 164.5q-6 63 -3 182t1 180q-6 119 -43 242t-37 188z" />
<glyph unicode="&#x5d6;" horiz-adv-x="1112" d="M61 1010q0 113 58.5 174t175.5 61q53 0 140 -21.5t143 -21.5q45 0 114.5 13.5t118.5 13.5q98 0 169 -52.5t71 -144.5q0 -123 -107 -205q-61 -47 -89 -98t-38 -135q-8 -66 -8 -167t-4 -142q-25 -317 -211 -318q-102 0 -167 69.5t-65 213.5q0 129 30 267t30 173 q0 94 -94 94q-127 0 -197 61.5t-70 164.5z" />
<glyph unicode="&#x5d7;" horiz-adv-x="1441" d="M61 995q0 117 77 191t214 74q57 0 156.5 -15.5t236.5 -15.5q123 0 186.5 -3t147.5 -22.5t138 -60.5q41 -31 69.5 -69t46 -90t27.5 -92t14 -111.5t5 -110.5t1 -123q0 -588 -254 -588q-117 0 -158.5 70.5t-41.5 242.5q0 25 8 106t5 152.5t-26 139.5q-55 160 -206 159 q-94 0 -151.5 -56t-57.5 -161q0 -78 32.5 -196.5t32.5 -179.5q0 -121 -54 -196t-151 -75q-127 0 -191.5 75t-64.5 202q0 82 14.5 193.5t14.5 174.5q0 74 -35 176q-35 98 -35 209z" />
<glyph unicode="&#x5d8;" horiz-adv-x="1376" d="M61 846q0 98 19.5 185t79 159t151.5 72q82 0 135.5 -56.5t53.5 -148.5q0 -72 -27 -182.5t-27 -184.5q0 -137 63.5 -232.5t209.5 -95.5q109 0 172 95.5t63 222.5q0 57 -21.5 100t-66.5 43q-31 0 -72.5 -28.5t-74.5 -28.5q-102 0 -103 152q0 141 86 245.5t218 104.5 q119 0 212 -85t138 -211t45 -263q0 -193 -73 -362t-217 -278.5t-329 -109.5q-371 0 -526 297q-109 207 -109 590z" />
<glyph unicode="&#x5d9;" horiz-adv-x="581" d="M61 903q0 129 21 209q36 141 192 141q131 0 195 -86q51 -70 51 -225q0 -178 -31 -289q-43 -154 -194 -153q-135 0 -186 114q-47 104 -48 289z" />
<glyph unicode="&#x5da;" horiz-adv-x="1386" d="M61 936q0 139 136 217q188 109 456 109q311 0 504 -175q160 -145 160 -432q0 -86 -10.5 -213t-10.5 -211q-2 -137 13.5 -304t15.5 -271q0 -139 -61.5 -208t-165.5 -69q-276 0 -221 422q10 72 33.5 186.5t38 226.5t14.5 253q0 360 -252 360q-76 0 -204 -54t-206 -54 q-100 0 -170 58.5t-70 158.5z" />
<glyph unicode="&#x5db;" horiz-adv-x="1273" d="M61 215q0 86 70 138.5t156 52.5q53 0 127.5 -20.5t142.5 -20.5q147 0 222 68.5t75 187.5q0 117 -78 182t-205 65q-61 0 -148 -38.5t-142 -38.5q-76 0 -137.5 47t-61.5 135q0 92 80 163.5t185.5 104.5t203.5 33q309 0 485 -186.5t176 -454.5q0 -322 -184 -491t-522 -169 q-444 0 -445 242z" />
<glyph unicode="&#x5dc;" horiz-adv-x="1392" d="M61 1184q0 143 41 319q29 121 80 166t146 47q76 2 133 -45t57 -119q0 -49 -15.5 -115.5t-15.5 -117.5t39 -85t97 -34q53 0 185 35t196 35q170 0 248.5 -123t78.5 -299q0 -285 -149 -539q-203 -342 -416 -342q-100 0 -162.5 54.5t-62.5 142.5q0 158 221 323q66 49 90.5 70 t53 68t28.5 100q0 66 -47 104.5t-133 38.5q-109 0 -232 -28.5t-203 -28.5q-131 0 -194.5 102.5t-63.5 270.5z" />
<glyph unicode="&#x5dd;" horiz-adv-x="1400" d="M61 1059q0 63 58.5 129.5t134.5 66.5q86 0 230.5 -18t238.5 -18q41 0 115.5 3t114.5 2t95.5 -8.5t99.5 -31t85 -64.5q29 -29 48 -59.5t30.5 -64t17.5 -71.5t8 -78t2 -87v-96q0 -272 -26 -519q-8 -72 -54.5 -121t-114 -49t-174 12.5t-173.5 12.5q-80 0 -204 -16.5 t-202 -16.5q-98 0 -161.5 72t-63.5 172q0 55 13.5 145t17.5 136q23 268 -54 372q-16 23 -31.5 44.5t-26.5 42t-17.5 48t-6.5 60.5zM516 711q0 -143 52.5 -246t168.5 -103q121 0 185.5 63.5t64.5 166.5q0 158 -78 233q-43 41 -96 54.5t-149 13.5q-76 0 -112 -53.5t-36 -128.5 z" />
<glyph unicode="&#x5de;" horiz-adv-x="1435" d="M61 240q0 109 61.5 253t57.5 232q-2 59 -56 161.5t-54 170.5q0 86 52 146.5t140 60.5q78 0 168 -51.5t143 -51.5q66 0 145 53.5t179 53.5q154 0 265.5 -92.5t162.5 -225.5t51 -280q0 -356 -127 -533.5t-364 -177.5q-125 0 -197 50t-72 143q0 98 53.5 148t182.5 79 q82 20 126 74.5t44 169.5q0 94 -61.5 164.5t-151.5 70.5q-201 0 -264 -364q-10 -90 -35 -214t-66 -192q-74 -123 -198 -123q-92 0 -138.5 77t-46.5 198z" />
<glyph unicode="&#x5df;" horiz-adv-x="677" d="M61 928q0 133 81 239.5t192 106.5q238 0 217 -328q-4 -55 -13.5 -156.5t-13.5 -189.5t-4 -207q0 -233 48 -427.5t48 -291.5q0 -115 -58 -184.5t-155 -69.5q-82 0 -144 39t-94 101.5t-47.5 127t-15.5 130.5q0 96 12.5 273t12.5 366q0 125 -33 259t-33 212z" />
<glyph unicode="&#x5e0;" horiz-adv-x="1046" d="M61 199q0 96 67 154.5t144 58.5q43 0 111 -13.5t115 -13.5q49 0 81.5 37t36.5 92q12 113 -13 172t-91 105q-8 6 -66.5 41.5t-80 54t-47 65t-25.5 101.5q0 90 61.5 151.5t151.5 61.5q479 0 479 -650q0 -190 -29 -397q-33 -229 -200 -229q-90 0 -233.5 -11.5t-211.5 -11.5 q-104 0 -177 62.5t-73 169.5z" />
<glyph unicode="&#x5e1;" horiz-adv-x="1308" d="M61 647q0 307 162 467t428 160q283 0 440.5 -181.5t157.5 -453.5q0 -313 -161.5 -487.5t-403.5 -174.5q-279 0 -451 198t-172 472zM403 670q-6 -135 54.5 -219t173.5 -84q96 0 159.5 72.5t63.5 168.5q0 133 -58 213t-171 80q-94 0 -155.5 -66.5t-66.5 -164.5z" />
<glyph unicode="&#x5e2;" horiz-adv-x="1468" d="M61 172q0 33 8.5 59.5t20.5 44t30.5 32t37 22.5t39 16t39.5 14q98 35 79 140q-8 49 -55 140t-88 194.5t-41 199.5q0 92 56.5 161t156.5 69q201 0 266 -301q29 -137 29 -357q0 -68 36 -123t99.5 -55t106.5 54.5t62.5 146.5t26.5 182t5 193q-2 109 53 186.5t154 77.5 q225 0 225 -340q0 -459 -235.5 -714t-630.5 -255q-479 0 -480 213z" />
<glyph unicode="&#x5e3;" horiz-adv-x="1394" d="M61 788q0 254 215 400q121 80 359 80q211 0 367.5 -88t228.5 -246q47 -100 70.5 -287.5t27.5 -333t4 -391.5q2 -49 0 -111.5t-4 -127t-17.5 -126t-37 -109.5t-63.5 -76.5t-99 -28.5q-119 0 -169 92t-50 272q0 137 24.5 362.5t24.5 370.5q0 141 -24 217 q-35 106 -126.5 173t-201.5 67q-49 0 -79 -27.5t-30 -70.5q0 -35 25.5 -72t57.5 -65.5t57.5 -71.5t25.5 -86q0 -84 -59.5 -124t-153.5 -40q-184 0 -278.5 130t-94.5 318z" />
<glyph unicode="&#x5e4;" horiz-adv-x="1308" d="M61 846q0 193 140.5 307.5t394.5 114.5q354 0 524 -211q129 -160 129 -400q0 -291 -188 -477q-213 -213 -520 -213q-215 0 -344 69.5t-131 213.5q0 152 249 151q96 -6 192.5 -5t180.5 30q88 31 145.5 99.5t57.5 156.5q0 82 -82 154q-84 74 -170 73q-49 0 -91 -25.5 t-42 -66.5q0 -25 22.5 -66.5t22.5 -70.5q0 -57 -44 -95t-124 -38q-141 0 -231.5 76.5t-90.5 222.5z" />
<glyph unicode="&#x5e5;" horiz-adv-x="1398" d="M61 1018q0 96 68 167.5t162 71.5q199 0 237 -286q49 -371 232 -371q74 0 114.5 66.5t40.5 152.5q0 84 -20.5 164t-20.5 129q0 70 57.5 115t133.5 45q117 0 194.5 -98.5t77.5 -219.5q0 -84 -29.5 -172t-55 -133t-81.5 -133q-31 -47 -93 -130t-97 -141.5t-43 -113.5 q-14 -88 9.5 -168t54 -168t30.5 -180q0 -109 -49 -169t-135 -58q-125 2 -192.5 104t-88.5 262q-23 174 -61.5 299t-126.5 291q-135 252 -250 438q-68 109 -68 236z" />
<glyph unicode="&#x5e6;" horiz-adv-x="1329" d="M61 213q0 90 48.5 153.5t136.5 69.5q80 6 159.5 -26.5t145.5 -32.5q90 0 90 82q0 84 -147 159q-197 106 -261 148q-82 53 -116.5 118.5t-34.5 162.5q0 92 55.5 159.5t145.5 67.5q96 0 153.5 -45t100.5 -137q14 -31 28.5 -64t31.5 -62.5t34.5 -53t38 -38t43.5 -14.5 q74 0 86 90q16 141 85.5 229.5t205.5 88.5q92 0 140 -62.5t38 -177.5q-6 -61 -39 -113.5t-67 -85t-59.5 -89t-19.5 -126.5q6 -76 79 -173t73 -212q0 -111 -80 -170t-223 -59q-119 0 -308.5 -18.5t-269.5 -18.5q-141 0 -217 70.5t-76 179.5z" />
<glyph unicode="&#x5e7;" horiz-adv-x="1449" d="M61 956q0 162 144 246q133 80 422 80q174 0 294.5 -24.5t231.5 -96.5q236 -154 236 -473q0 -84 -17.5 -174t-55.5 -178t-93.5 -157.5t-136 -112.5t-177 -43t-150.5 52t-54 140q0 100 98 174q88 66 133 125t45 143q0 100 -67.5 155.5t-184.5 55.5q-86 0 -214 -58t-208 -58 q-109 0 -177.5 54t-68.5 150zM100 -133q0 270 27 481q12 102 59 175t131 75q100 2 147.5 -53.5t47.5 -159.5q0 -31 -5 -86t-5 -90q0 -143 63 -365q39 -135 39 -239q0 -125 -70.5 -185.5t-181.5 -60.5q-82 0 -134 39t-76.5 116.5t-33 156.5t-8.5 196z" />
<glyph unicode="&#x5e8;" horiz-adv-x="1411" d="M61 958q0 131 121 218q76 53 195 70.5t303 17.5q160 0 278.5 -34t192.5 -91.5t119 -145.5t62.5 -182t17.5 -215t-7.5 -211t-31 -192.5t-76.5 -159t-135 -56.5q-102 0 -157.5 70t-55.5 193q0 76 23.5 172t23.5 166q0 135 -78 202.5t-211 67.5q-76 0 -184.5 -46t-177.5 -46 q-90 0 -156 58t-66 144z" />
<glyph unicode="&#x5e9;" horiz-adv-x="1777" d="M61 958q0 160 61 234t161 74q88 0 143 -58.5t57 -160.5q0 -35 -2 -88.5t-2 -86.5q8 -125 82 -124q78 0 82 151q4 78 12.5 130t30 113.5t68.5 93.5t118 32q109 0 173.5 -59.5t64.5 -149.5q0 -121 -39 -234.5t-94 -173.5q-72 -80 -180 -133q-76 -35 -76 -100q0 -82 96 -92 q98 -10 179 38t128 129.5t72 175t25 181.5q0 166 70.5 292t207.5 126q106 0 161.5 -79t55.5 -222q0 -186 -57 -372.5t-168 -330.5q-131 -170 -281.5 -239.5t-332.5 -69.5q-438 0 -644 326q-172 276 -172 677z" />
<glyph unicode="&#x5ea;" horiz-adv-x="1591" d="M61 170q0 90 47.5 141t114.5 66q98 20 140.5 67.5t42.5 126.5q0 129 -93 248q-77 103 -77 203q0 115 78.5 183.5t234.5 68.5q45 0 176 -22.5t246 -22.5q92 0 147.5 -4t127 -24.5t114.5 -58.5t81 -111t54 -177q10 -61 12 -118.5t3 -127t3 -121.5q2 -35 6.5 -83t7.5 -88 t3 -83q0 -111 -61.5 -187.5t-182.5 -76.5q-115 0 -168 67.5t-53 180.5q0 84 19.5 215t19.5 213q0 100 -42 173t-130 73q-113 0 -160 -76t-47 -186q0 -55 5 -139t5 -132q0 -145 -104.5 -265t-276.5 -120q-147 0 -209 41q-84 55 -84 156z" />
<glyph unicode="&#x2000;" horiz-adv-x="858" />
<glyph unicode="&#x2001;" horiz-adv-x="1716" />
<glyph unicode="&#x2002;" horiz-adv-x="858" />
<glyph unicode="&#x2003;" horiz-adv-x="1716" />
<glyph unicode="&#x2004;" horiz-adv-x="572" />
<glyph unicode="&#x2005;" horiz-adv-x="429" />
<glyph unicode="&#x2006;" horiz-adv-x="286" />
<glyph unicode="&#x2007;" horiz-adv-x="286" />
<glyph unicode="&#x2008;" horiz-adv-x="214" />
<glyph unicode="&#x2009;" horiz-adv-x="343" />
<glyph unicode="&#x200a;" horiz-adv-x="95" />
<glyph unicode="&#x2010;" d="M61 647q0 94 59 158.5t159 64.5q61 0 157 -14t160 -12q55 0 143 12t146 12q98 0 161.5 -53t63.5 -156q0 -100 -66.5 -161.5t-179.5 -61.5q-49 0 -128 9.5t-130 9.5q-59 0 -155.5 -15.5t-159.5 -15.5q-117 0 -173.5 63.5t-56.5 159.5z" />
<glyph unicode="&#x2011;" d="M61 647q0 94 59 158.5t159 64.5q61 0 157 -14t160 -12q55 0 143 12t146 12q98 0 161.5 -53t63.5 -156q0 -100 -66.5 -161.5t-179.5 -61.5q-49 0 -128 9.5t-130 9.5q-59 0 -155.5 -15.5t-159.5 -15.5q-117 0 -173.5 63.5t-56.5 159.5z" />
<glyph unicode="&#x2012;" d="M61 647q0 94 59 158.5t159 64.5q61 0 157 -14t160 -12q55 0 143 12t146 12q98 0 161.5 -53t63.5 -156q0 -100 -66.5 -161.5t-179.5 -61.5q-49 0 -128 9.5t-130 9.5q-59 0 -155.5 -15.5t-159.5 -15.5q-117 0 -173.5 63.5t-56.5 159.5z" />
<glyph unicode="&#x2013;" horiz-adv-x="1146" d="M61 647q0 94 57.5 158.5t155.5 64.5q59 0 153 -14t156 -12q54 0 140 12t142 12q96 0 158 -53t62 -156q0 -100 -65 -161.5t-175 -61.5q-48 0 -125 9.5t-127 9.5q-58 0 -152 -15.5t-155 -15.5q-115 0 -170 63.5t-55 159.5z" />
<glyph unicode="&#x2014;" horiz-adv-x="2170" d="M61 647q0 94 115 158.5t311 64.5q119 0 306.5 -14t312.5 -12q107 0 278.5 12t285.5 12q191 0 315 -53t124 -156q0 -100 -130 -161.5t-350 -61.5q-96 0 -250 9.5t-254 9.5q-115 0 -303.5 -15.5t-311.5 -15.5q-228 0 -338.5 63.5t-110.5 159.5z" />
<glyph unicode="&#x202f;" horiz-adv-x="343" />
<glyph unicode="&#x205f;" horiz-adv-x="429" />
<glyph unicode="&#xe000;" horiz-adv-x="1024" d="M0 0z" />
</font>
</defs>
</svg>
